<svg xmlns="http://www.w3.org/2000/svg"  viewBox="0 0 50 50" width="50px" height="50px"><path d="M 24.998047 2 C 18.307047 2 16.685656 2.9501875 16.347656 3.2421875 C 16.190656 3.3771875 16.079297 3.5578125 16.029297 3.7578125 C 15.987933 3.9232674 15.034903 7.8519548 15.005859 14.697266 C 13.44703 16.975706 13.042441 19.972842 12.695312 22.636719 C 12.414312 24.793719 12.148891 26.831781 11.337891 27.550781 C 11.123891 27.741781 11 28.014781 11 28.300781 C 11 30.592781 14.392656 31.308813 18.972656 31.882812 C 18.961656 32.028812 18.946781 32.183703 18.925781 32.345703 C 18.349781 33.704703 16.361406 34.489531 14.066406 35.394531 C 10.177406 36.928531 5.3379062 38.837312 5.0039062 44.945312 C 4.9879062 45.219313 5.0854375 45.4885 5.2734375 45.6875 C 5.4624375 45.8865 5.726 46 6 46 L 32 46 C 32 45.311 32.129469 44.638 32.355469 44 C 32.614005 43.269735 33.001431 42.586428 33.527344 41.998047 C 33.543344 41.980047 33.559172 41.969172 33.576172 41.951172 C 31.571172 41.709172 30 39.818 30 37.5 C 30 36.912054 30.11623 36.358844 30.300781 35.845703 C 30.34214 35.729687 30.385834 35.616354 30.435547 35.505859 C 30.517846 35.322878 30.607975 35.146269 30.710938 34.978516 C 30.782589 34.862756 30.864498 34.754094 30.945312 34.646484 C 30.997906 34.575889 31.053141 34.508304 31.109375 34.441406 C 31.188767 34.347595 31.267444 34.254397 31.353516 34.167969 L 31.310547 34.191406 C 31.313424 34.188448 31.315474 34.18459 31.318359 34.181641 C 31.317609 34.181045 31.317157 34.180283 31.316406 34.179688 C 31.561714 33.935459 31.835558 33.725092 32.126953 33.548828 C 31.620953 33.181828 31.224 32.774875 31 32.296875 L 31 31.976562 C 32.017 31.931562 33.071125 31.813953 34.078125 31.626953 C 34.235125 30.733953 34.625734 29.933453 35.177734 29.314453 C 33.751734 29.732453 31.866 30 30 30 C 29.447 30 29 30.447 29 31 L 29 32.5 C 29 32.622 29.022406 32.743422 29.066406 32.857422 C 29.178666 33.150451 29.326421 33.415914 29.490234 33.669922 L 25 39.488281 L 20.492188 33.648438 C 20.624605 33.427 20.747154 33.196041 20.839844 32.945312 C 20.863844 32.879312 20.880625 32.810234 20.890625 32.740234 C 20.999625 31.972234 21 31.315 21 31 C 21 30.493 20.620187 30.066812 20.117188 30.007812 C 16.135188 29.533812 13.800156 29.025953 13.160156 28.501953 C 14.115156 27.211953 14.380688 25.187484 14.679688 22.896484 C 14.987687 20.534484 15.332391 17.878 16.525391 16 L 33.474609 16 C 34.646609 17.874 34.971719 20.648234 35.261719 23.115234 C 35.504719 25.178234 35.729 27.032437 36.375 28.398438 C 36.872 28.146437 37.42 28 38 28 C 38.173 28 38.337859 28.033594 38.505859 28.058594 C 37.755859 27.124594 37.495047 24.978859 37.248047 22.880859 C 36.921206 20.102229 36.538752 16.975797 34.994141 14.701172 C 34.96546 7.8533392 34.012075 3.9233003 33.970703 3.7578125 C 33.920703 3.5578125 33.810297 3.3771875 33.654297 3.2421875 C 33.315297 2.9501875 31.693047 2 24.998047 2 z M 24 6 L 26 6 L 26 8 L 28 8 L 28 10 L 26 10 L 26 12 L 24 12 L 24 10 L 22 10 L 22 8 L 23.998047 8 L 24 6 z M 38 30 C 36.895 30 36 31.127047 36 32.498047 C 36 33.873047 36.895 35 38 35 C 39.11 35 40 33.873047 40 32.498047 C 40 31.127047 39.11 30 38 30 z M 44 30 C 42.896 30 42 31.128953 42 32.501953 C 42 33.875953 42.896 35 44 35 C 45.109 35 46 33.875953 46 32.501953 C 46 31.127953 45.109 30 44 30 z M 34 35 C 32.896 35 32 36.127 32 37.5 C 32 38.878 32.891 40 34 40 C 35.115 40 36 38.878 36 37.5 C 36 36.127 35.109 35 34 35 z M 46.996094 35 C 45.895094 35 45 36.127 45 37.5 C 45 38.873 45.895094 40 46.996094 40 C 48.103094 40 49 38.878 49 37.5 C 49 36.122 48.103094 35 46.996094 35 z M 40.5 38 C 39.655 38 38.507937 38.319703 37.835938 39.845703 C 36.981938 41.780703 36.222969 42.353484 35.667969 42.771484 C 35.436969 42.945484 35.218531 43.109031 35.019531 43.332031 C 34.361531 44.066031 34 45.014 34 46 C 34 48.206 35.794 50 38 50 C 39.168 50 39.949016 49.463578 40.416016 49.142578 C 40.445016 49.122578 40.473 49.102031 40.5 49.082031 C 40.527 49.102031 40.554984 49.122578 40.583984 49.142578 C 41.050984 49.463578 41.832 50 43 50 C 45.206 50 47 48.206 47 46 C 47 45.014 46.638469 44.066984 45.980469 43.333984 C 45.781469 43.110984 45.563031 42.945484 45.332031 42.771484 C 44.777031 42.353484 44.018062 41.782656 43.164062 39.847656 C 42.492062 38.320656 41.345 38 40.5 38 z"/></svg>