<svg xmlns="http://www.w3.org/2000/svg"  viewBox="0 0 72 72" width="64px" height="64px"><path d="M 51.779297 13.220703 C 45.569297 13.220703 42.639297 17.010781 40.279297 20.050781 C 37.826297 23.230781 37.506937 23.245938 35.710938 24.710938 C 37.960938 24.550938 40.139453 24.910312 42.189453 25.820312 C 46.949453 27.940312 50.019531 32.750078 50.019531 38.080078 C 50.019531 43.560078 47.370234 47.790937 44.990234 50.460938 C 49.260234 49.390938 52.98 47.58 55.75 44.25 C 60.04 39.11 59.000547 33.820312 58.310547 30.320312 C 58.140547 29.480312 57.839937 28.325391 57.960938 27.900391 C 57.965938 27.884391 57.982234 27.854844 57.990234 27.839844 C 58.279135 27.265266 58.579562 26.630449 58.869141 25.972656 L 61.910156 25.466797 C 63.043156 25.277797 63.902187 24.341313 63.992188 23.195312 C 64.082188 22.051312 63.380016 20.991906 62.291016 20.628906 L 59.847656 19.814453 C 59.132425 15.964425 55.899606 13.220703 51.779297 13.220703 z M 37.1875 28.695312 C 32.338881 28.484205 27.819953 31.830437 26.580078 33.070312 C 24.200078 35.540312 22.259453 37.789609 20.689453 39.599609 C 19.539453 40.929609 18.550781 42.070312 17.800781 42.820312 C 14.900781 45.730312 8.3590625 50.270547 8.2890625 50.310547 C 7.0890625 51.150547 6.6590625 52.730547 7.2890625 54.060547 C 7.7890625 55.130547 8.87 55.779297 10 55.779297 C 10.27 55.779297 10.550313 55.740156 10.820312 55.660156 C 10.890312 55.640156 18.030781 53.630859 28.050781 52.630859 C 29.410781 52.490859 30.759844 52.379766 32.089844 52.259766 C 32.538753 52.22056 32.978144 52.178481 33.423828 52.138672 L 35.013672 56.109375 L 32.533203 56.810547 C 31.630203 57.067547 31 57.902578 31 58.892578 C 31 60.054578 31.945422 61 33.107422 61 L 46.892578 61 C 48.054578 61 49 60.054578 49 58.892578 C 49 57.908578 48.30275 57.042031 47.34375 56.832031 L 41.226562 55.488281 L 40.267578 53.091797 L 40.234375 53.005859 C 39.679375 51.569859 40.000734 49.944313 41.052734 48.820312 C 41.977734 47.831312 42.757812 46.886719 42.757812 46.886719 L 42.619141 46.957031 C 44.354181 44.83523 46.019531 42.017097 46.019531 38.080078 C 46.019531 34.330078 43.880547 30.950469 40.560547 29.480469 C 39.442672 28.983406 38.306412 28.74403 37.1875 28.695312 z"/></svg>